<svg width="103" height="30" viewBox="0 0 103 30" fill="none" xmlns="http://www.w3.org/2000/svg">
<g clip-path="url(#clip0_213_5435)">
<path d="M6.65477 0.536621V11.6586H17.6302V0.536621H24.285V29.5122H17.6302V17.3659H6.65477V29.5122H0V0.536621H6.65477Z" fill="#0E6464"/>
<path d="M64.2636 14.7317C64.2636 24.2927 56.9632 30 46.1368 30C35.211 30 28.7549 23.5122 28.7549 15.2195C28.7549 6.48781 35.9063 0 46.7327 0C58.1054 0 64.2636 6.68293 64.2636 14.7317ZM37.5948 15.0732C37.5948 20.7805 40.9719 24.7805 46.5837 24.7805C52.2452 24.7805 55.4733 20.5854 55.4733 14.9268C55.4733 9.65854 52.3446 5.21951 46.5837 5.21951C40.8725 5.21951 37.5948 9.41463 37.5948 15.0732Z" fill="#0E3D3D"/>
<path d="M77.0263 14.7317C77.0263 24.2927 69.7259 30 58.8994 30C47.9737 30 41.5176 23.5122 41.5176 15.2195C41.5176 6.48781 48.6193 0 59.4954 0C70.8184 0 77.0263 6.68293 77.0263 14.7317ZM50.3078 15.0732C50.3078 20.7805 53.6849 24.7805 59.2968 24.7805C64.9583 24.7805 68.1863 20.5854 68.1863 14.9268C68.1863 9.65854 65.0576 5.21951 59.2968 5.21951C53.6352 5.21951 50.3078 9.41463 50.3078 15.0732Z" fill="#0E3D3D"/>
<path d="M88.2507 6.00004H80.3047V0.536621H103V6.04882H94.9551V29.5122H88.3004V6.00004H88.2507Z" fill="#0E6464"/>
</g>
<defs>
<clipPath id="clip0_213_5435">
<rect width="103" height="30" fill="white"/>
</clipPath>
</defs>
</svg>
