<svg width="152" height="34" viewBox="0 0 152 34" fill="none" xmlns="http://www.w3.org/2000/svg">
<g clip-path="url(#clip0_211_5430)">
<path d="M46.4083 9.43555C46.6239 9.43555 46.8395 9.48826 47.109 9.59369C47.3785 9.69911 47.5402 9.85725 47.648 10.0154L53.1997 18.4495L52.0678 18.3968L57.7813 10.0681C58.0508 9.6464 58.4281 9.48826 58.9132 9.48826C59.2905 9.48826 59.6139 9.59369 59.8834 9.85725C60.1529 10.1208 60.3146 10.4371 60.3146 10.8588V23.8262C60.3146 24.1952 60.2068 24.5642 59.9373 24.7751C59.6678 25.0386 59.3444 25.1441 58.9132 25.1441C58.482 25.1441 58.1586 25.0386 57.8891 24.7751C57.6196 24.5115 57.5118 24.1952 57.5118 23.8262V13.2836L58.4281 13.4945L53.7387 20.4526C53.577 20.6107 53.4153 20.7689 53.1997 20.8743C52.9841 20.9797 52.7685 21.0324 52.5529 21.0324C52.3373 21.0324 52.1756 20.9797 51.96 20.8743C51.7444 20.7689 51.5827 20.6107 51.421 20.4526L47.0551 13.7053L47.648 12.4929V23.8262C47.648 24.1952 47.5402 24.5642 47.2707 24.7751C47.0012 25.0386 46.7317 25.1441 46.3005 25.1441C45.9231 25.1441 45.5997 25.0386 45.3841 24.7751C45.1146 24.5115 45.0068 24.1952 45.0068 23.8262V10.8061C45.0068 10.4371 45.1685 10.1208 45.438 9.85725C45.6536 9.59369 46.0309 9.43555 46.4083 9.43555Z" fill="#009899"/>
<path d="M69.1542 25.3549C67.8606 25.3549 66.7287 25.0913 65.7585 24.5642C64.7883 24.0371 64.0876 23.2991 63.5486 22.4029C63.0095 21.5068 62.7939 20.4526 62.7939 19.2929C62.7939 17.975 63.0634 16.8153 63.6564 15.8665C64.1954 14.9177 64.95 14.1797 65.8663 13.7053C66.7826 13.1781 67.6989 12.9673 68.723 12.9673C69.4776 12.9673 70.2322 13.1254 70.933 13.4417C71.6337 13.758 72.2266 14.1797 72.7656 14.7068C73.3046 15.234 73.7358 15.8665 74.0592 16.6045C74.3826 17.3425 74.5443 18.0805 74.5443 18.8712C74.5443 19.2402 74.3826 19.5037 74.1131 19.7673C73.8436 20.0309 73.5202 20.0836 73.1429 20.0836H64.411L63.7103 17.8696H72.1188L71.6337 18.2913V17.7115C71.5798 17.2898 71.472 16.8681 71.1486 16.5518C70.8791 16.1828 70.5017 15.9192 70.0705 15.7084C69.6393 15.4975 69.2081 15.3921 68.723 15.3921C68.2379 15.3921 67.8606 15.4448 67.4294 15.5502C67.0521 15.6557 66.6748 15.8665 66.4053 16.1301C66.1358 16.3936 65.8663 16.8153 65.7046 17.2898C65.5429 17.7642 65.4351 18.3967 65.4351 19.082C65.4351 19.8727 65.5968 20.558 65.9741 21.1378C66.3514 21.7177 66.7826 22.1394 67.3216 22.4029C67.8606 22.7192 68.4535 22.8246 69.0464 22.8246C69.5854 22.8246 70.0705 22.7719 70.3939 22.6665C70.7174 22.5611 70.9869 22.4557 71.2025 22.3502C71.4181 22.2448 71.5798 22.1394 71.7415 22.034C72.011 21.8758 72.2805 21.8231 72.4961 21.8231C72.8195 21.8231 73.089 21.9285 73.3585 22.1394C73.5741 22.3502 73.6819 22.6138 73.6819 22.9301C73.6819 23.3518 73.4663 23.7208 73.0351 24.0371C72.6578 24.3533 72.0649 24.6696 71.3642 24.8805C70.6634 25.0913 69.9088 25.3549 69.1542 25.3549Z" fill="#009899"/>
<path d="M86.6721 8.59229C87.0495 8.59229 87.3729 8.69771 87.6424 8.96128C87.9119 9.22484 88.0197 9.54112 88.0197 9.96283V23.8264C88.0197 24.1954 87.9119 24.5644 87.6424 24.7752C87.3729 25.0388 87.0495 25.1442 86.6721 25.1442C86.2948 25.1442 85.9714 25.0388 85.7019 24.7752C85.4324 24.5117 85.3246 24.1954 85.3246 23.8264V22.6667L85.8097 22.8776C85.8097 23.0884 85.7019 23.2993 85.4863 23.5628C85.2707 23.8264 85.0012 24.09 84.6239 24.4062C84.2466 24.6698 83.8154 24.8807 83.3303 25.0915C82.8452 25.3024 82.3062 25.3551 81.7133 25.3551C80.6353 25.3551 79.719 25.0915 78.8565 24.5644C77.9941 24.0372 77.3473 23.2993 76.8083 22.3504C76.3232 21.4016 76.0537 20.3473 76.0537 19.1349C76.0537 17.9225 76.3232 16.8155 76.8083 15.9194C77.2934 14.9706 77.9941 14.2326 78.8026 13.7055C79.6651 13.1783 80.5814 12.9148 81.6055 12.9148C82.2523 12.9148 82.8452 13.0202 83.4381 13.231C83.9771 13.4419 84.4622 13.6528 84.8934 13.969C85.3246 14.2853 85.5941 14.5489 85.8097 14.8652C86.0253 15.1814 86.1331 15.445 86.1331 15.6559L85.3246 15.9721V9.96283C85.3246 9.59384 85.4324 9.22484 85.7019 9.01399C85.9714 8.69771 86.2948 8.59229 86.6721 8.59229ZM82.0906 22.9303C82.7374 22.9303 83.3303 22.7721 83.8693 22.4559C84.3544 22.1396 84.7856 21.6652 85.0551 21.138C85.3246 20.5582 85.4863 19.9256 85.4863 19.2403C85.4863 18.5024 85.3246 17.8698 85.0551 17.29C84.7856 16.7101 84.3544 16.2884 83.8693 15.9194C83.3842 15.6031 82.7913 15.445 82.0906 15.445C81.4438 15.445 80.8509 15.6031 80.3658 15.9194C79.8807 16.2357 79.4494 16.7101 79.1799 17.29C78.9104 17.8698 78.7487 18.5024 78.7487 19.2403C78.7487 19.9256 78.9104 20.5582 79.1799 21.138C79.4494 21.7179 79.8807 22.1396 80.3658 22.4559C80.8509 22.7721 81.3899 22.9303 82.0906 22.9303Z" fill="#009899"/>
<path d="M92.2237 11.7025C91.6847 11.7025 91.3613 11.5971 91.1457 11.439C90.9301 11.2808 90.8223 10.9645 90.8223 10.5428V10.1211C90.8223 9.69943 90.9301 9.38315 91.1996 9.22501C91.4152 9.06687 91.7925 9.01416 92.2776 9.01416C92.8166 9.01416 93.1939 9.11959 93.4095 9.27773C93.6251 9.43587 93.7329 9.75214 93.7329 10.1738V10.5956C93.7329 11.0173 93.6251 11.3335 93.4095 11.4917C93.14 11.6498 92.7627 11.7025 92.2237 11.7025ZM93.6251 23.7738C93.6251 24.1428 93.5173 24.5118 93.2478 24.7227C92.9783 24.9863 92.6549 25.0917 92.2776 25.0917C91.9003 25.0917 91.5769 24.9863 91.3074 24.7227C91.0379 24.4591 90.9301 24.1428 90.9301 23.7738V14.549C90.9301 14.1801 91.0379 13.8111 91.3074 13.6002C91.5769 13.3366 91.9003 13.2312 92.2776 13.2312C92.6549 13.2312 92.9783 13.3366 93.2478 13.6002C93.5173 13.8638 93.6251 14.1801 93.6251 14.549V23.7738Z" fill="#009899"/>
<path d="M95.7273 23.2991C95.5656 23.0882 95.5117 22.8247 95.5117 22.5084C95.5117 22.1921 95.7273 21.8758 96.1046 21.665C96.3741 21.5068 96.5897 21.4541 96.8592 21.4541C97.1287 21.4541 97.3982 21.6123 97.6677 21.8758C98.099 22.2975 98.5841 22.6665 99.0692 22.8774C99.5543 23.141 100.147 23.2464 100.902 23.2464C101.117 23.2464 101.387 23.1937 101.656 23.141C101.926 23.0882 102.195 22.9828 102.357 22.772C102.573 22.5611 102.681 22.2975 102.681 21.9285C102.681 21.6123 102.573 21.3487 102.357 21.1378C102.142 20.927 101.818 20.7689 101.441 20.6634C101.063 20.558 100.632 20.3999 100.201 20.2944C99.716 20.1363 99.2309 20.0309 98.7458 19.8727C98.2607 19.7146 97.7755 19.5037 97.3982 19.2402C96.967 18.9766 96.6436 18.6076 96.3741 18.1859C96.1046 17.7642 95.9968 17.1844 95.9968 16.5518C95.9968 15.8138 96.2124 15.1813 96.6436 14.6541C97.0748 14.127 97.6138 13.7053 98.3146 13.4417C99.0153 13.1782 99.716 13.02 100.471 13.02C100.956 13.02 101.441 13.0727 101.98 13.1782C102.519 13.2836 103.004 13.4944 103.489 13.7053C103.974 13.9689 104.351 14.2851 104.675 14.6541C104.837 14.865 104.944 15.1285 104.998 15.4448C105.052 15.7611 104.89 16.0247 104.567 16.2882C104.351 16.4464 104.082 16.5518 103.759 16.4991C103.435 16.4991 103.22 16.3937 103.004 16.1828C102.734 15.8665 102.411 15.603 101.98 15.3921C101.549 15.1813 101.063 15.0758 100.471 15.0758C100.255 15.0758 99.9855 15.0758 99.716 15.1285C99.4465 15.1813 99.2309 15.2867 99.0153 15.4448C98.7997 15.603 98.6919 15.8665 98.6919 16.2882C98.6919 16.6572 98.7997 16.9208 99.0153 17.1316C99.2309 17.3425 99.5543 17.5006 99.9316 17.6061C100.309 17.7115 100.74 17.8696 101.171 17.9751C101.602 18.0805 102.088 18.2386 102.573 18.3968C103.058 18.5549 103.489 18.7658 103.866 19.0293C104.244 19.2929 104.567 19.6619 104.837 20.0836C105.106 20.5053 105.214 21.0324 105.214 21.7177C105.214 22.4557 104.998 23.141 104.513 23.6681C104.082 24.1952 103.489 24.6169 102.788 24.8805C102.088 25.1441 101.387 25.3022 100.686 25.3022C99.7699 25.3022 98.9075 25.144 97.9912 24.8278C97.0748 24.5115 96.3202 24.0898 95.7273 23.2991Z" fill="#009899"/>
<path d="M108.879 25.144C108.501 25.144 108.178 25.0386 107.909 24.775C107.639 24.5115 107.531 24.1952 107.531 23.8262V14.5487C107.531 14.1797 107.639 13.8107 107.909 13.5998C108.178 13.3363 108.501 13.2309 108.879 13.2309C109.256 13.2309 109.579 13.3363 109.849 13.5998C110.118 13.8634 110.226 14.1797 110.226 14.5487V16.6572L110.065 15.1812C110.226 14.8122 110.442 14.496 110.711 14.2324C110.981 13.9688 111.304 13.7053 111.628 13.5471C111.951 13.3363 112.328 13.2309 112.706 13.1254C113.083 13.02 113.46 12.9673 113.838 12.9673C114.269 12.9673 114.7 13.0727 114.97 13.3363C115.293 13.5998 115.455 13.8634 115.455 14.2324C115.455 14.7068 115.347 15.0758 115.077 15.2867C114.808 15.4975 114.538 15.6029 114.215 15.6029C113.945 15.6029 113.676 15.5502 113.406 15.4448C113.137 15.3394 112.975 15.2867 112.652 15.2867C112.382 15.2867 112.113 15.3394 111.789 15.4975C111.52 15.6029 111.25 15.8138 111.035 16.0774C110.819 16.3409 110.604 16.6572 110.442 17.0789C110.28 17.5006 110.226 17.9223 110.226 18.5022V23.8262C110.226 24.1952 110.118 24.5642 109.849 24.775C109.579 25.0386 109.256 25.144 108.879 25.144Z" fill="#009899"/>
<path d="M126.558 13.1782C126.936 13.1782 127.259 13.2836 127.529 13.5472C127.798 13.8108 127.906 14.1271 127.906 14.4961V20.1891C127.906 21.7705 127.475 23.0356 126.558 23.9317C125.642 24.8278 124.349 25.3023 122.678 25.3023C121.007 25.3023 119.713 24.8278 118.797 23.9317C117.88 22.9829 117.449 21.7705 117.449 20.1891V14.5488C117.449 14.1798 117.557 13.8108 117.827 13.5999C118.096 13.3364 118.419 13.2309 118.797 13.2309C119.174 13.2309 119.497 13.3364 119.767 13.5999C120.036 13.8635 120.144 14.1798 120.144 14.5488V20.2418C120.144 21.1379 120.36 21.8232 120.737 22.2449C121.168 22.6666 121.761 22.9302 122.57 22.9302C123.432 22.9302 124.025 22.7193 124.456 22.2449C124.888 21.8232 125.049 21.1379 125.049 20.2418V14.5488C125.049 14.1798 125.157 13.8108 125.427 13.5999C125.804 13.2836 126.127 13.1782 126.558 13.1782Z" fill="#009899"/>
<path d="M137.231 12.9673C138.309 12.9673 139.279 13.2309 140.088 13.758C140.95 14.2851 141.597 15.0231 142.082 15.9192C142.567 16.8681 142.837 17.9223 142.837 19.1347C142.837 20.3471 142.567 21.4541 142.082 22.3502C141.597 23.2991 140.896 24.0371 140.088 24.5642C139.279 25.0913 138.309 25.3549 137.285 25.3549C136.692 25.3549 136.099 25.2495 135.56 25.0386C135.021 24.8277 134.536 24.6169 134.159 24.3006C133.728 23.9843 133.458 23.7208 133.243 23.4045C133.027 23.0882 132.919 22.8246 132.919 22.6138L133.62 22.2975V28.2014C133.62 28.5704 133.512 28.9394 133.243 29.1502C132.973 29.4138 132.65 29.5192 132.272 29.5192C131.895 29.5192 131.572 29.4138 131.302 29.1502C131.033 28.8867 130.925 28.5704 130.925 28.1487V14.5487C130.925 14.1797 131.033 13.8107 131.302 13.5998C131.572 13.3363 131.895 13.2309 132.272 13.2309C132.65 13.2309 132.973 13.3363 133.243 13.5998C133.512 13.8634 133.62 14.1797 133.62 14.5487V15.6557L133.243 15.4448C133.243 15.234 133.35 15.0231 133.566 14.7595C133.782 14.496 134.051 14.2324 134.428 13.9161C134.806 13.6526 135.237 13.389 135.722 13.2309C136.207 13.02 136.692 12.9673 137.231 12.9673ZM136.908 15.3921C136.261 15.3921 135.668 15.5502 135.129 15.8665C134.644 16.1828 134.213 16.6572 133.943 17.1843C133.674 17.7642 133.512 18.3967 133.512 19.082C133.512 19.7673 133.674 20.3998 133.943 20.9797C134.213 21.5595 134.644 21.9812 135.129 22.3502C135.614 22.6665 136.207 22.8246 136.908 22.8246C137.555 22.8246 138.147 22.6665 138.687 22.3502C139.172 22.034 139.549 21.5595 139.872 20.9797C140.196 20.3998 140.304 19.7673 140.304 19.082C140.304 18.344 140.142 17.7115 139.872 17.1843C139.603 16.6572 139.226 16.1828 138.687 15.8665C138.147 15.5502 137.555 15.3921 136.908 15.3921Z" fill="#009899"/>
<path d="M145.316 13.389H150.76C151.137 13.389 151.407 13.4944 151.676 13.758C151.946 14.0216 152.054 14.2851 152.054 14.6541C152.054 15.0231 151.946 15.2867 151.676 15.4975C151.407 15.7084 151.137 15.8665 150.76 15.8665H145.316C144.939 15.8665 144.669 15.7611 144.4 15.4975C144.13 15.234 144.022 14.9704 144.022 14.6014C144.022 14.2324 144.13 13.9689 144.4 13.758C144.615 13.4944 144.939 13.389 145.316 13.389ZM147.742 10.5952C148.119 10.5952 148.442 10.7006 148.712 10.9642C148.981 11.2278 149.089 11.5441 149.089 11.913V21.8758C149.089 22.0867 149.143 22.2448 149.197 22.403C149.251 22.5611 149.413 22.6138 149.52 22.7192C149.628 22.8247 149.844 22.8247 150.005 22.8247C150.167 22.8247 150.383 22.772 150.491 22.7192C150.652 22.6665 150.814 22.6138 151.03 22.6138C151.245 22.6138 151.461 22.7192 151.622 22.9301C151.784 23.141 151.892 23.4045 151.892 23.7208C151.892 24.1425 151.676 24.4588 151.191 24.7751C150.706 25.0386 150.221 25.1968 149.682 25.1968C149.359 25.1968 148.981 25.1968 148.604 25.1441C148.227 25.0913 147.849 24.9859 147.526 24.7751C147.203 24.5642 146.879 24.2479 146.664 23.8262C146.448 23.4045 146.34 22.8247 146.34 22.0867V11.9658C146.34 11.5968 146.448 11.2278 146.717 11.0169C146.987 10.8061 147.364 10.5952 147.742 10.5952Z" fill="#009899"/>
<path d="M22.5305 25.9349C22.0993 25.2497 22.3149 24.3008 22.9617 23.8264C25.2256 22.1923 29.7532 18.2915 28.2979 14.0218C27.9206 12.9148 27.3277 12.1768 26.4114 11.9132C24.1475 11.1225 20.4823 12.8621 19.2426 13.6001L18.2185 14.2326C17.6795 14.5489 17.0326 14.2326 16.9248 13.6528L16.7631 12.4404C16.5475 10.8063 15.4156 6.11478 12.7745 4.53339C11.5887 3.84811 10.1873 3.74269 8.51633 4.32253C2.80286 6.37835 3.93477 13.8636 4.74329 16.9737C4.95889 17.7644 4.47378 18.6078 3.66527 18.8714C2.74896 19.1876 1.77875 18.6605 1.56314 17.7117C0.215626 12.3876 0.107824 3.90083 7.49222 1.3706C10.1334 0.474471 12.505 0.632611 14.5532 1.84501C17.5717 3.68998 18.9731 7.43261 19.6199 9.85742C21.6681 8.96129 24.8482 7.95974 27.5972 8.90858C28.8908 9.33029 30.5617 10.4373 31.478 13.0202C33.5802 19.2404 27.8128 24.3008 24.956 26.3566C24.0936 26.9892 23.0156 26.7783 22.5305 25.9349Z" fill="#FF3E49"/>
<path d="M23.878 27.5163C23.7163 27.5163 23.5546 27.5163 23.3929 27.4636C22.6922 27.3055 22.1532 26.9365 21.7758 26.3566C21.129 25.3024 21.3985 23.9318 22.4227 23.1938C24.3631 21.7706 28.7829 18.0807 27.4893 14.338C27.112 13.1783 26.5191 12.8621 26.1418 12.7039C24.3092 12.0714 21.0212 13.5473 19.6737 14.338L18.6496 14.9706C18.1645 15.2869 17.5716 15.2869 17.0326 15.076C16.4936 14.8124 16.1702 14.338 16.1163 13.8109L15.9546 12.5985C15.7929 11.1752 14.7149 6.69461 12.3432 5.27135C11.373 4.69151 10.2411 4.63879 8.78577 5.16593C3.71911 6.90546 4.79712 13.9163 5.49783 16.8155C5.76733 18.0279 5.12053 19.2403 3.88081 19.6621C3.234 19.8729 2.53329 19.8202 1.88648 19.5039C1.29358 19.1876 0.86237 18.6078 0.700667 17.9752C-0.970255 11.2279 -0.161744 3.16282 7.16875 0.632592C10.0255 -0.368958 12.6666 -0.158106 14.9305 1.21244C17.7872 2.95197 19.2964 6.11476 20.1049 8.80314C22.3149 7.95972 25.2255 7.27445 27.8127 8.17058C29.268 8.69771 31.1546 9.91011 32.1787 12.8093C34.4964 19.6093 28.19 25.0388 25.3872 27.0419C24.956 27.3582 24.417 27.5163 23.878 27.5163ZM25.1177 10.9117C25.6567 10.9117 26.2496 10.9644 26.7347 11.1752C27.8666 11.5442 28.6212 12.4403 29.1063 13.8109C30.7234 18.6078 25.7106 22.8776 23.4468 24.5117C23.1234 24.7752 23.0156 25.1969 23.2312 25.5659C23.339 25.7768 23.5546 25.8822 23.7702 25.9349C23.9858 25.9876 24.2014 25.9349 24.417 25.7768C26.9503 23.9845 32.6099 19.1349 30.6156 13.3365C29.8071 11.0171 28.3517 10.121 27.2737 9.69926C24.8482 8.85585 21.9375 9.75197 19.9432 10.6481L19.0269 11.0698L18.7574 10.121C18.2184 8.06515 16.8709 4.32251 14.068 2.58298C12.2354 1.476 10.1333 1.31786 7.76166 2.16127C-0.323446 4.95507 1.83258 15.4977 2.37159 17.5535C2.42549 17.7644 2.58719 17.9752 2.74889 18.0807C2.9645 18.1861 3.1801 18.1861 3.3957 18.1334C3.77301 18.0279 4.04251 17.6062 3.93471 17.1845C3.1262 13.8109 1.94038 5.79848 8.24677 3.63724C10.1872 2.95197 11.8042 3.0574 13.2056 3.90081C16.7631 6.06205 17.5716 12.3349 17.6255 12.3876L17.7872 13.6L18.8652 12.9675C18.8652 12.9148 22.2071 10.9117 25.1177 10.9117Z" fill="#FF3E49"/>
<path d="M11.4816 33.6313C10.4036 33.6313 9.4873 32.7352 9.4873 31.6809V22.0871C9.4873 21.0328 10.4036 20.1367 11.4816 20.1367C12.5596 20.1367 13.476 21.0328 13.476 22.0871V31.6282C13.476 32.7352 12.6135 33.6313 11.4816 33.6313Z" fill="#FF3E49"/>
<path d="M11.4812 34.0001C10.1337 34.0001 9.05566 32.9459 9.05566 31.628V22.0869C9.05566 20.7691 10.1337 19.7148 11.4812 19.7148C12.8287 19.7148 13.9067 20.7691 13.9067 22.0869V31.628C13.9067 32.9459 12.8287 34.0001 11.4812 34.0001ZM11.4812 20.5583C10.6188 20.5583 9.91808 21.2435 9.91808 22.0869V31.628C9.91808 32.4714 10.6188 33.1567 11.4812 33.1567C12.3436 33.1567 13.0443 32.4714 13.0443 31.628V22.0869C13.0982 21.2435 12.3975 20.5583 11.4812 20.5583Z" fill="#FF3E49"/>
<path d="M16.3861 28.8344H6.63007C5.55205 28.8344 4.63574 27.9382 4.63574 26.884C4.63574 25.8297 5.55205 24.9336 6.63007 24.9336H16.3861C17.4641 24.9336 18.3804 25.8297 18.3804 26.884C18.3804 27.991 17.4641 28.8344 16.3861 28.8344Z" fill="#FF3E49"/>
<path d="M16.3857 29.2559H6.62963C5.28212 29.2559 4.2041 28.2016 4.2041 26.8838C4.2041 25.566 5.28212 24.5117 6.62963 24.5117H16.3857C17.7332 24.5117 18.8112 25.566 18.8112 26.8838C18.8112 28.2016 17.7332 29.2559 16.3857 29.2559ZM6.62963 25.3551C5.76722 25.3551 5.06651 26.0404 5.06651 26.8838C5.06651 27.7272 5.76722 28.4125 6.62963 28.4125H16.3857C17.2481 28.4125 17.9488 27.7272 17.9488 26.8838C17.9488 26.0404 17.2481 25.3551 16.3857 25.3551H6.62963Z" fill="#FF3E49"/>
</g>
<defs>
<clipPath id="clip0_211_5430">
<rect width="152" height="34" fill="white"/>
</clipPath>
</defs>
</svg>
