<svg width="149" height="23" viewBox="0 0 149 23" fill="none" xmlns="http://www.w3.org/2000/svg">
<g clip-path="url(#clip0_135_6266)">
<path d="M0 17.6307V0.480835H3.33009V7.61324H11.5272V0.480835H14.8573V17.6307H11.5272V10.151H3.33009V17.6307H0Z" fill="#8AB07A"/>
<path d="M24.6203 17.9245C23.311 17.9245 22.1725 17.6574 21.1479 17.1499C20.1517 16.6156 19.3548 15.8943 18.7855 14.9594C18.2163 14.0244 17.9316 12.9292 17.9316 11.6737C17.9316 10.4181 18.2163 9.29619 18.7855 8.30781C19.3548 7.31942 20.1232 6.57146 21.1194 6.01048C22.1156 5.47622 23.311 5.18237 24.6487 5.18237C25.9295 5.18237 27.0396 5.4495 28.0073 5.95705C28.975 6.49132 29.7435 7.18586 30.2843 8.0941C30.8251 9.00235 31.1097 10.0174 31.1097 11.1127C31.1097 11.2997 31.1097 11.4867 31.1097 11.6737C31.1097 11.8607 31.0812 12.0744 31.0812 12.2881H21.2333C21.2902 13.223 21.6602 13.971 22.2864 14.5053C22.9125 15.0395 23.681 15.3066 24.5918 15.3066C25.2749 15.3066 25.8442 15.1731 26.2995 14.8792C26.7549 14.5854 27.0965 14.2114 27.3242 13.7573H30.7112C30.455 14.532 30.0566 15.2265 29.4873 15.8409C28.9181 16.482 28.235 16.9629 27.4096 17.3101C26.5842 17.7375 25.6734 17.9245 24.6203 17.9245ZM24.6487 7.74683C23.8233 7.74683 23.1118 7.96054 22.4856 8.38795C21.8594 8.81536 21.461 9.48319 21.2902 10.3647H27.7227C27.6657 9.56333 27.3527 8.92221 26.7834 8.46809C26.2142 7.96054 25.5026 7.74683 24.6487 7.74683Z" fill="#8AB07A"/>
<path d="M38.3952 17.9245C37.2852 17.9245 36.3744 17.7643 35.6628 17.417C34.9513 17.0697 34.4105 16.6423 34.069 16.0813C33.7274 15.5204 33.5566 14.906 33.5566 14.2381C33.5566 13.1162 34.012 12.2079 34.9513 11.4867C35.8905 10.7921 37.2852 10.4449 39.1637 10.4449H42.4369V10.151C42.4369 9.32291 42.1807 8.70851 41.6684 8.30781C41.1561 7.90711 40.5299 7.72012 39.7899 7.72012C39.1068 7.72012 38.5091 7.8804 38.0252 8.17424C37.5129 8.46809 37.1998 8.92221 37.086 9.5099H33.8128C33.8982 8.62837 34.2113 7.85369 34.7521 7.21257C35.2928 6.57146 36.0044 6.06391 36.8867 5.71664C37.7691 5.36936 38.7368 5.18237 39.8183 5.18237C41.6684 5.18237 43.12 5.60978 44.1731 6.49132C45.2262 7.34614 45.767 8.57494 45.767 10.151V17.6307H42.9207L42.6076 15.6806C42.2376 16.3217 41.6969 16.8827 41.0138 17.2834C40.3591 17.7108 39.4768 17.9245 38.3952 17.9245ZM39.1352 15.4669C40.103 15.4669 40.843 15.1731 41.3553 14.5854C41.8961 13.9977 42.2092 13.2765 42.3515 12.3949H39.5053C38.6229 12.3949 37.9968 12.5552 37.5983 12.849C37.2283 13.1429 37.029 13.5169 37.029 13.971C37.029 14.4518 37.2283 14.7991 37.5983 15.0662C38.0252 15.3334 38.5091 15.4669 39.1352 15.4669Z" fill="#8AB07A"/>
<path d="M48.9834 17.6307V0H52.3135V17.6307H48.9834Z" fill="#8AB07A"/>
<path d="M61.5071 17.6306C60.1409 17.6306 59.0594 17.3101 58.234 16.6957C57.4086 16.0813 57.0101 14.986 57.0101 13.3832V8.09405H54.79V5.47616H57.0101L57.4086 2.21716H60.3402V5.47616H63.841V8.09405H60.3402V13.41C60.3402 13.9977 60.4825 14.3983 60.7387 14.6121C60.9948 14.8258 61.4787 14.9326 62.1333 14.9326H63.7557V17.6039H61.5071V17.6306Z" fill="#8AB07A"/>
<path d="M66.7158 17.6307V0H70.0459V7.34611C70.4728 6.67828 71.0706 6.14402 71.8106 5.77004C72.5506 5.39605 73.4045 5.18235 74.3437 5.18235C75.9376 5.18235 77.1899 5.66318 78.0723 6.59814C78.9546 7.5331 79.3815 8.92218 79.3815 10.7654V17.6307H76.0799V11.0592C76.0799 10.0174 75.8522 9.21603 75.4253 8.65505C74.9699 8.09408 74.2868 7.82695 73.3191 7.82695C72.3798 7.82695 71.6113 8.1475 70.9852 8.76191C70.359 9.37631 70.0459 10.2578 70.0459 11.3531V17.6307H66.7158Z" fill="#8AB07A"/>
<path d="M82.2842 21.5308V18.5657H97.2269V21.5575H82.2842V21.5308Z" fill="#294A4A"/>
<path d="M107.844 17.9245C106.136 17.9245 104.627 17.5505 103.318 16.8293C102.037 16.108 101.041 15.0662 100.33 13.7573C99.6181 12.4483 99.248 10.9257 99.248 9.16262C99.248 7.39955 99.6181 5.85019 100.358 4.48782C101.098 3.15217 102.151 2.08364 103.517 1.33568C104.884 0.587709 106.506 0.187012 108.384 0.187012C110.519 0.187012 112.284 0.667848 113.707 1.62952C115.102 2.59119 116.041 3.92685 116.439 5.60978H112.711C112.426 4.80838 111.942 4.19398 111.202 3.73986C110.462 3.28573 109.523 3.07203 108.384 3.07203C106.563 3.07203 105.14 3.60629 104.172 4.70153C103.176 5.79677 102.692 7.26599 102.692 9.16262C102.692 11.0593 103.176 12.5285 104.172 13.5436C105.168 14.5854 106.477 15.0929 108.185 15.0929C109.836 15.0929 111.088 14.6655 111.914 13.8374C112.768 13.0093 113.251 11.8874 113.451 10.525H108.84V8.17424H116.809V17.6307H113.735L113.479 15.3868C112.881 16.2149 112.141 16.8293 111.259 17.2834C110.348 17.6841 109.21 17.9245 107.844 17.9245Z" fill="#294A4A"/>
<path d="M124.381 17.9245C123.271 17.9245 122.36 17.7643 121.648 17.417C120.937 17.0697 120.396 16.6423 120.054 16.0813C119.713 15.5204 119.542 14.906 119.542 14.2381C119.542 13.1162 119.997 12.2079 120.937 11.4867C121.876 10.7921 123.271 10.4449 125.149 10.4449H128.422V10.151C128.422 9.32291 128.166 8.70851 127.654 8.30781C127.141 7.90711 126.515 7.72012 125.775 7.72012C125.092 7.72012 124.494 7.8804 124.011 8.17424C123.498 8.46809 123.185 8.92221 123.071 9.5099H119.798C119.884 8.62837 120.197 7.85369 120.737 7.21257C121.278 6.57146 121.99 6.06391 122.872 5.71664C123.754 5.36936 124.722 5.18237 125.804 5.18237C127.654 5.18237 129.105 5.60978 130.158 6.49132C131.212 7.34614 131.752 8.57494 131.752 10.151V17.6307H128.906L128.593 15.6806C128.223 16.3217 127.682 16.8827 126.999 17.2834C126.344 17.7108 125.462 17.9245 124.381 17.9245ZM125.149 15.4669C126.117 15.4669 126.857 15.1731 127.369 14.5854C127.881 13.9977 128.223 13.2765 128.365 12.3949H125.519C124.637 12.3949 124.011 12.5552 123.612 12.849C123.242 13.1429 123.043 13.5169 123.043 13.971C123.043 14.4518 123.242 14.7991 123.612 15.0662C124.011 15.3334 124.523 15.4669 125.149 15.4669Z" fill="#294A4A"/>
<path d="M134.968 23V5.47622H137.928L138.326 7.21257C138.753 6.67831 139.294 6.19747 139.977 5.79678C140.66 5.39608 141.543 5.18237 142.653 5.18237C143.876 5.18237 144.958 5.4495 145.926 6.01048C146.893 6.57146 147.633 7.31942 148.203 8.2811C148.772 9.24277 149.028 10.338 149.028 11.5668C149.028 12.7956 148.744 13.8909 148.203 14.8258C147.633 15.7875 146.893 16.5355 145.926 17.0697C144.958 17.604 143.876 17.8978 142.653 17.8978C141.685 17.8978 140.831 17.7375 140.091 17.3903C139.351 17.043 138.782 16.5622 138.326 15.9478V23H134.968ZM141.941 15.1731C142.994 15.1731 143.876 14.8258 144.588 14.158C145.271 13.4902 145.641 12.6353 145.641 11.5668C145.641 10.4983 145.3 9.64347 144.588 8.94892C143.905 8.25438 143.023 7.93383 141.941 7.93383C140.859 7.93383 139.977 8.2811 139.294 8.94892C138.611 9.61675 138.269 10.4983 138.269 11.5668C138.269 12.6353 138.611 13.4902 139.294 14.1847C139.977 14.8258 140.859 15.1731 141.941 15.1731Z" fill="#294A4A"/>
<path d="M93.7861 11.9663V9.18811L84.8205 9.18811V11.9663L93.7861 11.9663Z" fill="#BA6B99"/>
<path d="M90.795 6.35767H87.835V14.7723H90.795V6.35767Z" fill="#BA6B99"/>
</g>
<defs>
<clipPath id="clip0_135_6266">
<rect width="149" height="23" fill="white"/>
</clipPath>
</defs>
</svg>
