<svg width="86" height="46" viewBox="0 0 86 46" fill="none" xmlns="http://www.w3.org/2000/svg">
<g clip-path="url(#clip0_214_5451)">
<path d="M1.57798 27.8139C3.68196 28.8836 6.83792 29.9534 9.99388 29.9534C13.4128 29.9534 15.2538 28.3488 15.2538 26.2092C15.5168 24.0697 13.9388 22.7325 9.73089 21.3953C4.20795 19.2557 0.525994 16.3139 0.525994 11.2325C0.525994 5.34876 5.25994 0.802246 13.1498 0.802246C17.0948 0.802246 19.7248 1.60457 21.8287 2.4069L20.2508 8.8255C18.9358 8.29062 16.3058 7.22085 13.1498 7.22085C9.73089 7.22085 8.1529 8.8255 8.1529 10.4302C8.1529 12.5697 9.99388 13.6395 14.4648 15.2441C20.5138 17.3836 23.1437 20.5929 23.1437 25.4069C23.1437 31.2906 18.9358 36.1046 9.46789 36.1046C5.52294 36.1046 1.84098 35.0348 0 33.965L1.57798 27.8139Z" fill="black"/>
<path d="M66.0123 4.01163C66.0123 6.15116 64.4343 8.02326 61.8043 8.02326C59.4374 8.02326 57.8594 6.4186 57.8594 4.01163C57.8594 1.87209 59.4374 0 61.8043 0C64.1713 0 66.0123 1.60465 66.0123 4.01163ZM58.1224 35.8372V10.6977H65.7493V35.5698H58.1224V35.8372Z" fill="black"/>
<path d="M43.3944 10.1626C39.7125 10.1626 37.0825 11.4998 35.2415 14.1742L34.7155 10.6975H28.1406C28.1406 13.1045 28.4036 15.7789 28.4036 18.9882V20.5928H36.0305C36.0305 20.3254 36.0305 20.0579 36.0305 20.0579C36.5565 17.651 38.3975 16.0463 40.5015 16.0463C43.9204 16.0463 45.7614 18.9882 45.7614 22.9998C45.7614 27.2789 43.9204 29.9533 40.5015 29.9533C38.9235 29.9533 37.3455 28.8835 36.5565 27.5463H28.1406V45.4649H35.7675V33.1626C36.8195 34.7672 39.1865 36.1045 42.0795 36.1045C47.6024 36.1045 53.1253 31.8254 53.1253 22.7324C53.3883 14.9766 48.6544 10.1626 43.3944 10.1626Z" fill="black"/>
<path d="M75.217 34.2324C76.5319 35.5696 78.6359 36.3719 81.0029 36.3719C83.1069 36.3719 84.9478 36.1044 85.9998 35.837V29.9533C85.2108 30.2207 84.6848 30.2207 83.6329 30.2207C82.0549 30.2207 81.2659 29.6858 81.0029 28.3486H73.376C73.376 30.7556 73.902 32.8951 75.217 34.2324Z" fill="black"/>
<path d="M86.0001 16.5815V10.6978H80.4772V4.01172L73.1133 6.15125V10.6978H69.6943V16.5815H73.1133V20.8606H80.4772V16.5815H86.0001Z" fill="black"/>
</g>
<defs>
<clipPath id="clip0_214_5451">
<rect width="86" height="46" fill="white"/>
</clipPath>
</defs>
</svg>
