<svg width="41" height="41" viewBox="0 0 41 41" fill="none" xmlns="http://www.w3.org/2000/svg">
<circle cx="20.5" cy="20.5" r="20.5" fill="#BA6B99"/>
<path d="M21 21.3614C18.475 21.3614 16.4286 19.3288 16.4286 16.8208C16.4286 14.3129 18.475 12.2803 21 12.2803C23.525 12.2803 25.5714 14.3129 25.5714 16.8208C25.5714 19.3288 23.525 21.3614 21 21.3614ZM24.4286 23.3195C27.0714 24.0892 29 26.5156 29 29.3889C29 29.9706 28.525 30.4424 27.9393 30.4424H14.0607C13.475 30.4424 13 29.9706 13 29.3889C13 26.5156 14.9286 24.0892 17.5714 23.3195V25.1215C16.5857 25.3733 15.8571 26.2637 15.8571 27.3208V28.7397C15.8571 29.0519 16.1143 29.3073 16.4286 29.3073H17C17.3143 29.3073 17.5714 29.0519 17.5714 28.7397C17.5714 28.4276 17.3143 28.1722 17 28.1722V27.3208C17 26.6929 17.5107 26.1857 18.1429 26.1857C18.775 26.1857 19.2857 26.6929 19.2857 27.3208V28.1722C18.9714 28.1722 18.7143 28.4276 18.7143 28.7397C18.7143 29.0519 18.9714 29.3073 19.2857 29.3073H19.8571C20.1714 29.3073 20.4286 29.0519 20.4286 28.7397V27.3208C20.4286 26.2637 19.7 25.3733 18.7143 25.1215V23.096C18.9286 23.0747 19.1464 23.0641 19.3679 23.0641H22.6321C22.8536 23.0641 23.0714 23.0747 23.2857 23.096V25.4159C22.4607 25.6607 21.8571 26.4198 21.8571 27.3208C21.8571 28.4169 22.7536 29.3073 23.8571 29.3073C24.9607 29.3073 25.8571 28.4169 25.8571 27.3208C25.8571 26.4198 25.2536 25.6607 24.4286 25.4159V23.3195ZM23.8571 28.1722C23.3821 28.1722 23 27.7926 23 27.3208C23 26.849 23.3821 26.4695 23.8571 26.4695C24.3321 26.4695 24.7143 26.849 24.7143 27.3208C24.7143 27.7926 24.3321 28.1722 23.8571 28.1722Z" fill="white"/>
</svg>
