<svg width="41" height="41" viewBox="0 0 41 41" fill="none" xmlns="http://www.w3.org/2000/svg">
<circle cx="20.5" cy="20.5" r="20.5" fill="#BA6B99"/>
<path d="M28 27.6805H29.6V29.2805H12V27.6805H13.6V14.0805C13.6 13.8683 13.6843 13.6649 13.8343 13.5148C13.9843 13.3648 14.1878 13.2805 14.4 13.2805H27.2C27.4122 13.2805 27.6157 13.3648 27.7657 13.5148C27.9157 13.6649 28 13.8683 28 14.0805V27.6805ZM17.6 20.4805V22.0805H20V20.4805H17.6ZM17.6 17.2805V18.8805H20V17.2805H17.6ZM17.6 23.6805V25.2805H20V23.6805H17.6ZM21.6 23.6805V25.2805H24V23.6805H21.6ZM21.6 20.4805V22.0805H24V20.4805H21.6ZM21.6 17.2805V18.8805H24V17.2805H21.6Z" fill="white"/>
</svg>
