<svg width="41" height="41" viewBox="0 0 41 41" fill="none" xmlns="http://www.w3.org/2000/svg">
<circle cx="20.5" cy="20.5" r="20.5" fill="#BA6B99"/>
<path d="M19.0952 16.3279H22.1429V14.8041H19.0952V16.3279ZM25.1905 29.2803C24.1365 29.2803 23.2382 28.909 22.4956 28.1664C21.7525 27.4233 21.381 26.5247 21.381 25.4707C21.381 24.4168 21.7525 23.5182 22.4956 22.7751C23.2382 22.0325 24.1365 21.6612 25.1905 21.6612C26.2444 21.6612 27.143 22.0325 27.8861 22.7751C28.6287 23.5182 29 24.4168 29 25.4707C29 26.5247 28.6287 27.4233 27.8861 28.1664C27.143 28.909 26.2444 29.2803 25.1905 29.2803ZM26.4476 27.2612L26.981 26.7279L25.5714 25.3184V23.185H24.8095V25.6231L26.4476 27.2612ZM20.3714 27.7565H14.5238C14.1048 27.7565 13.7462 27.6074 13.448 27.3092C13.1493 27.0106 13 26.6517 13 26.2327V17.8517C13 17.4327 13.1493 17.0741 13.448 16.7759C13.7462 16.4772 14.1048 16.3279 14.5238 16.3279H17.5714V14.8041C17.5714 14.385 17.7208 14.0262 18.0194 13.7275C18.3176 13.4294 18.6762 13.2803 19.0952 13.2803H22.1429C22.5619 13.2803 22.9208 13.4294 23.2194 13.7275C23.5176 14.0262 23.6667 14.385 23.6667 14.8041V16.3279H26.7143C27.1333 16.3279 27.4922 16.4772 27.7909 16.7759C28.089 17.0741 28.2381 17.4327 28.2381 17.8517V21.1088C27.7937 20.7914 27.3111 20.5501 26.7905 20.385C26.2698 20.22 25.7365 20.1374 25.1905 20.1374C23.7048 20.1374 22.4446 20.6547 21.4099 21.6894C20.3747 22.7246 19.8571 23.985 19.8571 25.4707C19.8571 25.8771 19.8985 26.2707 19.9813 26.6517C20.0636 27.0327 20.1937 27.4009 20.3714 27.7565Z" fill="white"/>
</svg>
