<svg width="18" height="13" viewBox="0 0 18 13" fill="none" xmlns="http://www.w3.org/2000/svg">
<path d="M10.748 12.5393C10.5169 12.3082 10.4059 12.0289 10.4152 11.7014C10.4252 11.374 10.5457 11.0947 10.7769 10.8636L14.0417 7.59872H1.1557C0.82825 7.59872 0.55358 7.48777 0.331686 7.26587C0.110562 7.04475 0 6.77046 0 6.44302C0 6.11557 0.110562 5.8409 0.331686 5.619C0.55358 5.39788 0.82825 5.28732 1.1557 5.28732H14.0417L10.748 1.99358C10.5169 1.76244 10.4013 1.48777 10.4013 1.16957C10.4013 0.852134 10.5169 0.577849 10.748 0.346709C10.9791 0.115569 11.2538 0 11.572 0C11.8894 0 12.1637 0.115569 12.3949 0.346709L17.6822 5.63403C17.7978 5.7496 17.8798 5.8748 17.9283 6.00963C17.9761 6.14446 18 6.28892 18 6.44302C18 6.59711 17.9761 6.74157 17.9283 6.8764C17.8798 7.01124 17.7978 7.13644 17.6822 7.25201L12.366 12.5682C12.1541 12.7801 11.8894 12.886 11.572 12.886C11.2538 12.886 10.9791 12.7705 10.748 12.5393Z" fill="white"/>
</svg>
